<?xml version="1.0" encoding="UTF-8"?>
		<svg xmlns="http://www.w3.org/2000/svg" viewBox="0 0 2000 2000">
    <g id="Grit-Parts">
    <path transform="scale(1.905489642043436 1.5356232263979834) rotate(220.01803330587083 1369.744923287083 1044.2137484741063) translate(1369.744923287083,1044.2137484741063)" d="M3,9 L5,7.085 L7,5.17 L6,2.489 L5,0 L4.8,3.447 L4.6,6.894 L2.2,5.553 L0,4.213 L1.6,6.511 Z" fill="rgba(255,255,255,0.18959189915662078)"></path><path transform="scale(1.549652350018549 1.2091752131659905) rotate(142.94297299988554 265.39460077131463 1911.2536663400022) translate(265.39460077131463,1911.2536663400022)" d="M4,6 L2.8,3.077 C1.4,-0.429 0,-1.014 0,1.713 C0,2.882 0.8,4.246 2,4.831 L4,6 Z" fill="rgba(255,255,255,0.7323441687370058)"></path><path transform="scale(1.0385006742709437 1.0557215047786752) rotate(95.26958694793272 1469.7076834921704 1851.9451417124008) translate(1469.7076834921704,1851.9451417124008)" d="M3.238,4 C3.619,4 4,3 4,2 L4,0 L1.905,0 L0,0 L1.143,2 C1.714,3 2.667,4 3.238,4 Z" fill="rgba(255,255,255,0.7104537178613366)"></path><path transform="scale(0.9834287708875551 1.7151493304114964) rotate(208.52432889885836 1914.2155754332011 42.85294338972756) translate(1914.2155754332011,42.85294338972756)" d="M4,6 L2.8,3.077 C1.4,-0.429 0,-1.014 0,1.713 C0,2.882 0.8,4.246 2,4.831 L4,6 Z" fill="rgba(255,255,255,0.6231786816704885)"></path><path transform="scale(1.989618646830157 1.237393530779614) rotate(351.81649342574286 1480.9588244673075 2.3145995342757075) translate(1480.9588244673075,2.3145995342757075)" d="M3.238,4 C3.619,4 4,3 4,2 L4,0 L1.905,0 L0,0 L1.143,2 C1.714,3 2.667,4 3.238,4 Z" fill="rgba(255,255,255,0.09016736542535009)"></path><path transform="scale(1.2019475213414328 1.7103009682131516) rotate(91.59662118924666 683.6955579658572 372.4428259100683) translate(683.6955579658572,372.4428259100683)" d="M3.238,4 C3.619,4 4,3 4,2 L4,0 L1.905,0 L0,0 L1.143,2 C1.714,3 2.667,4 3.238,4 Z" fill="rgba(255,255,255,0.8366155977197636)"></path><path transform="scale(0.511574191177353 1.7569804491800598) rotate(152.60854057582316 859.2394358518294 1980.6321322211193) translate(859.2394358518294,1980.6321322211193)" d="M1,2 C1.6,2 2,1.6 2,1 C2,0.4 1.6,0 1,0 C0.4,0 0,0.4 0,1 C0,1.6 0.4,2 1,2 Z" fill="rgba(255,255,255,0.6984450615051156)"></path><path transform="scale(1.1616373873335055 0.8200398751246663) rotate(203.17826998469735 1928.9413233987948 1892.0356538323579) translate(1928.9413233987948,1892.0356538323579)" d="M10,5.949 L10,3.077 L10,0 L8.2,0 C7.4,0 6.6,1.026 6.6,2.256 L6.6,4.513 L3.4,3.282 L0,2.051 L2.4,4.923 L4.8,8 L7.4,6.974 L10,5.949 Z" fill="rgba(255,255,255,0.36352493833777255)"></path><path transform="scale(1.446913195332816 1.2215625139671658) rotate(353.1281432277093 135.28077823698627 1684.2526456263172) translate(135.28077823698627,1684.2526456263172)" d="M1,2 C1.6,2 2,1.6 2,1 C2,0.4 1.6,0 1,0 C0.4,0 0,0.4 0,1 C0,1.6 0.4,2 1,2 Z" fill="rgba(255,255,255,0.2141896260125833)"></path><path transform="scale(1.0054413998578036 1.0995678586770246) rotate(143.19959170928507 421.01550247887553 605.6512135075502) translate(421.01550247887553,605.6512135075502)" d="M0,5 L1.615,3.846 L3,2.5 L1.615,1.154 L0,0 L0,2.5 Z" fill="rgba(255,255,255,0.44987433945491406)"></path><path transform="scale(1.8963399159548264 0.7281797173705162) rotate(162.4175720249443 1203.9810460225056 1494.9236721118937) translate(1203.9810460225056,1494.9236721118937)" d="M0,5 L1.615,3.846 L3,2.5 L1.615,1.154 L0,0 L0,2.5 Z" fill="rgba(255,255,255,0.4752434947715749)"></path><path transform="scale(1.5668366056497391 1.7969542156306926) rotate(95.42987073368555 1565.034263081141 1557.7516324662715) translate(1565.034263081141,1557.7516324662715)" d="M2.857,4 C4.381,4 6.286,3 6.857,2 L8,0 L5.143,0 C3.619,0 1.714,0.8 1.143,2 L0,4 L2.857,4 Z" fill="rgba(255,255,255,0.4124394724351288)"></path><path transform="scale(0.628978343405996 1.3654853365483741) rotate(142.0780224854021 880.0256826247836 580.7853521770916) translate(880.0256826247836,580.7853521770916)" d="M3,9 L5,7.085 L7,5.17 L6,2.489 L5,0 L4.8,3.447 L4.6,6.894 L2.2,5.553 L0,4.213 L1.6,6.511 Z" fill="rgba(255,255,255,0.9658279594621486)"></path><path transform="scale(0.9848423048009849 1.5941010279855934) rotate(356.1807525108979 803.547418136203 1035.885115203413) translate(803.547418136203,1035.885115203413)" d="M2.391,3.48892289 C3.913,2.62492289 5,1.54592289 5,0.89792289 C5,-0.82807711 3.043,0.03492289 1.522,2.62492289 L0,4.99992289 L2.391,3.48892289 Z" fill="rgba(255,255,255,0.10219654199797645)"></path><path transform="scale(0.5713569807785377 1.8929618475604593) rotate(335.04979399160504 1051.9265544132427 1268.7261690511336) translate(1051.9265544132427,1268.7261690511336)" d="M3.238,4 C3.619,4 4,3 4,2 L4,0 L1.905,0 L0,0 L1.143,2 C1.714,3 2.667,4 3.238,4 Z" fill="rgba(255,255,255,0.367518703013465)"></path><path transform="scale(1.1984618078837015 1.9822278850281472) rotate(116.70260733364812 685.9068689095271 1334.9846929731482) translate(685.9068689095271,1334.9846929731482)" d="M10,5.949 L10,3.077 L10,0 L8.2,0 C7.4,0 6.6,1.026 6.6,2.256 L6.6,4.513 L3.4,3.282 L0,2.051 L2.4,4.923 L4.8,8 L7.4,6.974 L10,5.949 Z" fill="rgba(255,255,255,0.5956692977419011)"></path><path transform="scale(1.8666747542418283 1.1056015855402224) rotate(107.26152813546574 1508.144065226681 55.01541354725337) translate(1508.144065226681,55.01541354725337)" d="M2.5,3 L3.846,1.615 L5,0 L2.5,0 L0,0 L1.154,1.615 Z" fill="rgba(255,255,255,0.505443367020135)"></path><path transform="scale(1.9697997434686438 1.137310864149223) rotate(176.6774048233197 348.74538081921446 460.0960231735911) translate(348.74538081921446,460.0960231735911)" d="M4,6 L2.8,3.077 C1.4,-0.429 0,-1.014 0,1.713 C0,2.882 0.8,4.246 2,4.831 L4,6 Z" fill="rgba(255,255,255,0.7684343031703853)"></path><path transform="scale(1.6935336532587115 1.2841831831831283) rotate(82.51090577174585 541.611936343795 946.7611245513776) translate(541.611936343795,946.7611245513776)" d="M2.391,3.48892289 C3.913,2.62492289 5,1.54592289 5,0.89792289 C5,-0.82807711 3.043,0.03492289 1.522,2.62492289 L0,4.99992289 L2.391,3.48892289 Z" fill="rgba(255,255,255,0.659120418022632)"></path><path transform="scale(0.6832946248678458 0.9736603525974601) rotate(243.0426358732422 314.45070853532496 1757.98282169175) translate(314.45070853532496,1757.98282169175)" d="M2.5,3 L3.846,1.615 L5,0 L2.5,0 L0,0 L1.154,1.615 Z" fill="rgba(255,255,255,0.2963396856357339)"></path><path transform="scale(1.6623275425273947 0.8347638662730669) rotate(53.14966053591811 1685.1930751269144 1533.69212503757) translate(1685.1930751269144,1533.69212503757)" d="M1,2 C1.6,2 2,1.6 2,1 C2,0.4 1.6,0 1,0 C0.4,0 0,0.4 0,1 C0,1.6 0.4,2 1,2 Z" fill="rgba(255,255,255,0.5310917729312321)"></path><path transform="scale(0.6612401905141616 1.3821591253054604) rotate(23.744442708226874 902.1932848477054 1817.5521159256332) translate(902.1932848477054,1817.5521159256332)" d="M1,2 C1.6,2 2,1.6 2,1 C2,0.4 1.6,0 1,0 C0.4,0 0,0.4 0,1 C0,1.6 0.4,2 1,2 Z" fill="rgba(255,255,255,0.4715670933262026)"></path><path transform="scale(1.4390965286770339 0.7571078755580557) rotate(288.291947763595 381.09239749345926 1999.944380954575) translate(381.09239749345926,1999.944380954575)" d="M2.391,3.48892289 C3.913,2.62492289 5,1.54592289 5,0.89792289 C5,-0.82807711 3.043,0.03492289 1.522,2.62492289 L0,4.99992289 L2.391,3.48892289 Z" fill="rgba(255,255,255,0.3023654102508142)"></path><path transform="scale(1.785284642532953 1.807140052636278) rotate(307.4981777009893 874.583546828657 33.057725692378085) translate(874.583546828657,33.057725692378085)" d="M2.391,3.48892289 C3.913,2.62492289 5,1.54592289 5,0.89792289 C5,-0.82807711 3.043,0.03492289 1.522,2.62492289 L0,4.99992289 L2.391,3.48892289 Z" fill="rgba(255,255,255,0.9127423155032064)"></path><path transform="scale(1.3392549635202267 1.4786567052525437) rotate(248.89679131817797 1392.7865229120982 1643.7610476614295) translate(1392.7865229120982,1643.7610476614295)" d="M1,2 C1.6,2 2,1.6 2,1 C2,0.4 1.6,0 1,0 C0.4,0 0,0.4 0,1 C0,1.6 0.4,2 1,2 Z" fill="rgba(255,255,255,0.821766424535805)"></path><path transform="scale(0.708570374661409 1.4250100120909939) rotate(132.24924986684215 768.0627606862962 644.8964798874846) translate(768.0627606862962,644.8964798874846)" d="M4,6 L2.8,3.077 C1.4,-0.429 0,-1.014 0,1.713 C0,2.882 0.8,4.246 2,4.831 L4,6 Z" fill="rgba(255,255,255,0.23965678343213703)"></path><path transform="scale(1.6692582218597318 0.7930973228099008) rotate(240.1663415371636 1628.7108082291159 1980.7436621441866) translate(1628.7108082291159,1980.7436621441866)" d="M2.857,4 C4.381,4 6.286,3 6.857,2 L8,0 L5.143,0 C3.619,0 1.714,0.8 1.143,2 L0,4 L2.857,4 Z" fill="rgba(255,255,255,0.32985399408365623)"></path><path transform="scale(1.7600194446565975 0.8786278466644266) rotate(222.05622372072153 666.7149412525744 1906.3188928626653) translate(666.7149412525744,1906.3188928626653)" d="M0,5 L1.615,3.846 L3,2.5 L1.615,1.154 L0,0 L0,2.5 Z" fill="rgba(255,255,255,0.6428738025140663)"></path><path transform="scale(1.7602293242611249 1.7181753412862006) rotate(105.86646053133677 1443.9901035394862 738.0653044643957) translate(1443.9901035394862,738.0653044643957)" d="M2.391,3.48892289 C3.913,2.62492289 5,1.54592289 5,0.89792289 C5,-0.82807711 3.043,0.03492289 1.522,2.62492289 L0,4.99992289 L2.391,3.48892289 Z" fill="rgba(255,255,255,0.8854076860824194)"></path><path transform="scale(1.2942137061982508 1.6678880251204315) rotate(222.37211627610583 687.7939523455692 1813.2801826377508) translate(687.7939523455692,1813.2801826377508)" d="M3,9 L5,7.085 L7,5.17 L6,2.489 L5,0 L4.8,3.447 L4.6,6.894 L2.2,5.553 L0,4.213 L1.6,6.511 Z" fill="rgba(255,255,255,0.7493492262812083)"></path><path transform="scale(1.7139244551440114 1.413623502575216) rotate(196.45446708481654 1888.6815365014481 1297.3487154619395) translate(1888.6815365014481,1297.3487154619395)" d="M4,6 L2.8,3.077 C1.4,-0.429 0,-1.014 0,1.713 C0,2.882 0.8,4.246 2,4.831 L4,6 Z" fill="rgba(255,255,255,0.7527220130845662)"></path><path transform="scale(1.533714707690409 1.947655625581505) rotate(145.15072887243414 699.1057883483403 608.8380404981559) translate(699.1057883483403,608.8380404981559)" d="M3.238,4 C3.619,4 4,3 4,2 L4,0 L1.905,0 L0,0 L1.143,2 C1.714,3 2.667,4 3.238,4 Z" fill="rgba(255,255,255,0.7759564652370241)"></path><path transform="scale(1.5095528565168748 1.0616351288289314) rotate(325.217202818281 1645.3023338945027 1450.3657050438235) translate(1645.3023338945027,1450.3657050438235)" d="M3.238,4 C3.619,4 4,3 4,2 L4,0 L1.905,0 L0,0 L1.143,2 C1.714,3 2.667,4 3.238,4 Z" fill="rgba(255,255,255,0.6684020087276696)"></path><path transform="scale(0.5614158403882403 0.869276971578757) rotate(110.34408247697344 1965.8690513250394 1407.3319180121127) translate(1965.8690513250394,1407.3319180121127)" d="M2.857,4 C4.381,4 6.286,3 6.857,2 L8,0 L5.143,0 C3.619,0 1.714,0.8 1.143,2 L0,4 L2.857,4 Z" fill="rgba(255,255,255,0.6104032925837781)"></path><path transform="scale(0.5484373333853125 1.9786521613160555) rotate(126.01638841696888 1909.475635373639 1622.7065693755671) translate(1909.475635373639,1622.7065693755671)" d="M3.238,4 C3.619,4 4,3 4,2 L4,0 L1.905,0 L0,0 L1.143,2 C1.714,3 2.667,4 3.238,4 Z" fill="rgba(255,255,255,0.9435487267020148)"></path><path transform="scale(1.1199295361851576 1.982799460713213) rotate(23.71834583636793 744.367930531538 63.417351649181164) translate(744.367930531538,63.417351649181164)" d="M2.857,4 C4.381,4 6.286,3 6.857,2 L8,0 L5.143,0 C3.619,0 1.714,0.8 1.143,2 L0,4 L2.857,4 Z" fill="rgba(255,255,255,0.3794664577514113)"></path><path transform="scale(0.8579971464712396 1.2907234006467605) rotate(182.32039952051358 774.0815125461525 943.2333656966856) translate(774.0815125461525,943.2333656966856)" d="M3.238,4 C3.619,4 4,3 4,2 L4,0 L1.905,0 L0,0 L1.143,2 C1.714,3 2.667,4 3.238,4 Z" fill="rgba(255,255,255,0.5126678068244384)"></path><path transform="scale(0.9390836160452813 1.1802299859960343) rotate(98.06119600975352 433.4807273437646 1904.6662520203452) translate(433.4807273437646,1904.6662520203452)" d="M3,9 L5,7.085 L7,5.17 L6,2.489 L5,0 L4.8,3.447 L4.6,6.894 L2.2,5.553 L0,4.213 L1.6,6.511 Z" fill="rgba(255,255,255,0.11245142057881519)"></path><path transform="scale(1.6102121812406462 1.9640270612352868) rotate(289.12613968164237 512.6530889206817 960.0637328856147) translate(512.6530889206817,960.0637328856147)" d="M1,2 C1.6,2 2,1.6 2,1 C2,0.4 1.6,0 1,0 C0.4,0 0,0.4 0,1 C0,1.6 0.4,2 1,2 Z" fill="rgba(255,255,255,0.30790180681834367)"></path><path transform="scale(1.2488832211287164 1.9166330873861581) rotate(68.52652408534313 204.88175093894733 1756.890226195007) translate(204.88175093894733,1756.890226195007)" d="M2.5,3 L3.846,1.615 L5,0 L2.5,0 L0,0 L1.154,1.615 Z" fill="rgba(255,255,255,0.010332792063757257)"></path><path transform="scale(1.1253934820590605 1.534958818269794) rotate(154.98377482515482 747.0089968756621 1852.2769661488096) translate(747.0089968756621,1852.2769661488096)" d="M4,6 L2.8,3.077 C1.4,-0.429 0,-1.014 0,1.713 C0,2.882 0.8,4.246 2,4.831 L4,6 Z" fill="rgba(255,255,255,0.7461135841800091)"></path><path transform="scale(1.0409723743267905 1.6591037552233325) rotate(60.690437703484086 82.44586472517179 1221.0045249862608) translate(82.44586472517179,1221.0045249862608)" d="M2.5,3 L3.846,1.615 L5,0 L2.5,0 L0,0 L1.154,1.615 Z" fill="rgba(255,255,255,0.18911773079018457)"></path><path transform="scale(1.968028329855105 1.677248638732819) rotate(353.73726891782724 360.65257286370354 1271.4442582708946) translate(360.65257286370354,1271.4442582708946)" d="M4,6 L2.8,3.077 C1.4,-0.429 0,-1.014 0,1.713 C0,2.882 0.8,4.246 2,4.831 L4,6 Z" fill="rgba(255,255,255,0.21830898378071417)"></path><path transform="scale(0.9747610264580157 1.1600824167935633) rotate(48.91387996636727 43.502452767160804 595.4855664554403) translate(43.502452767160804,595.4855664554403)" d="M4,6 L2.8,3.077 C1.4,-0.429 0,-1.014 0,1.713 C0,2.882 0.8,4.246 2,4.831 L4,6 Z" fill="rgba(255,255,255,0.5597376860351737)"></path><path transform="scale(1.9808966789956988 0.9062754723708228) rotate(171.95992888391874 307.48582118180366 1310.4951527759576) translate(307.48582118180366,1310.4951527759576)" d="M4,6 L2.8,3.077 C1.4,-0.429 0,-1.014 0,1.713 C0,2.882 0.8,4.246 2,4.831 L4,6 Z" fill="rgba(255,255,255,0.24540780273801133)"></path><path transform="scale(1.1189605375119458 1.700910582734842) rotate(68.85606413063545 543.5302002685725 204.90870017648933) translate(543.5302002685725,204.90870017648933)" d="M3.238,4 C3.619,4 4,3 4,2 L4,0 L1.905,0 L0,0 L1.143,2 C1.714,3 2.667,4 3.238,4 Z" fill="rgba(255,255,255,0.9485120200528621)"></path><path transform="scale(0.6184076941024181 1.795227699495098) rotate(96.07473359842871 558.6035135506169 1018.5115850152075) translate(558.6035135506169,1018.5115850152075)" d="M10,5.949 L10,3.077 L10,0 L8.2,0 C7.4,0 6.6,1.026 6.6,2.256 L6.6,4.513 L3.4,3.282 L0,2.051 L2.4,4.923 L4.8,8 L7.4,6.974 L10,5.949 Z" fill="rgba(255,255,255,0.9224703624737653)"></path><path transform="scale(0.5490333445279704 1.2073224758048902) rotate(128.6286590080139 1646.3474834139658 1097.8686084069577) translate(1646.3474834139658,1097.8686084069577)" d="M3,9 L5,7.085 L7,5.17 L6,2.489 L5,0 L4.8,3.447 L4.6,6.894 L2.2,5.553 L0,4.213 L1.6,6.511 Z" fill="rgba(255,255,255,0.1884910685078116)"></path><path transform="scale(0.6893034876743838 1.0358588926316796) rotate(1.5775456154611511 1374.7566602331115 704.6031407401978) translate(1374.7566602331115,704.6031407401978)" d="M10,5.949 L10,3.077 L10,0 L8.2,0 C7.4,0 6.6,1.026 6.6,2.256 L6.6,4.513 L3.4,3.282 L0,2.051 L2.4,4.923 L4.8,8 L7.4,6.974 L10,5.949 Z" fill="rgba(255,255,255,0.36033949046969194)"></path><path transform="scale(1.9264628674179143 1.4080810524130565) rotate(343.2199122453242 537.2762664676522 465.6503529991003) translate(537.2762664676522,465.6503529991003)" d="M2.391,3.48892289 C3.913,2.62492289 5,1.54592289 5,0.89792289 C5,-0.82807711 3.043,0.03492289 1.522,2.62492289 L0,4.99992289 L2.391,3.48892289 Z" fill="rgba(255,255,255,0.30353687475034863)"></path>
</g>
		</svg>
	