<?xml version="1.0" encoding="UTF-8"?>
		<svg xmlns="http://www.w3.org/2000/svg" viewBox="0 0 2000 2000">
    <g id="Grit-Parts">
    <path transform="scale(1.1913232920103383 1.3711194922939858) rotate(53.49087719469799 1620.6986150094522 1329.8377944915485) translate(1620.6986150094522,1329.8377944915485)" d="M0,5 L1.615,3.846 L3,2.5 L1.615,1.154 L0,0 L0,2.5 Z" fill="rgba(0,0,0,0.6935438994614651)"></path><path transform="scale(1.57315222037501 1.7537022082916098) rotate(150.234390649368 94.3946366882833 1065.023472343099) translate(94.3946366882833,1065.023472343099)" d="M0,5 L1.615,3.846 L3,2.5 L1.615,1.154 L0,0 L0,2.5 Z" fill="rgba(0,0,0,0.23994018168478148)"></path><path transform="scale(0.5170599096173581 1.9657083010511123) rotate(355.7693631524191 1974.094799548134 153.92275381700404) translate(1974.094799548134,153.92275381700404)" d="M3.238,4 C3.619,4 4,3 4,2 L4,0 L1.905,0 L0,0 L1.143,2 C1.714,3 2.667,4 3.238,4 Z" fill="rgba(0,0,0,0.2645118862773157)"></path><path transform="scale(1.458194815620006 0.6225441879702757) rotate(40.633649970559546 232.57908901633905 893.2323867027865) translate(232.57908901633905,893.2323867027865)" d="M10,5.949 L10,3.077 L10,0 L8.2,0 C7.4,0 6.6,1.026 6.6,2.256 L6.6,4.513 L3.4,3.282 L0,2.051 L2.4,4.923 L4.8,8 L7.4,6.974 L10,5.949 Z" fill="rgba(0,0,0,0.08106744143718014)"></path><path transform="scale(1.0105687273657384 1.7679969683381567) rotate(35.34059661566906 1221.787568508047 1104.5332008589166) translate(1221.787568508047,1104.5332008589166)" d="M2.5,3 L3.846,1.615 L5,0 L2.5,0 L0,0 L1.154,1.615 Z" fill="rgba(0,0,0,0.9657133098009498)"></path><path transform="scale(0.6931776869233164 0.8761894245934151) rotate(88.77482591700347 153.07174600540296 1737.0639396514234) translate(153.07174600540296,1737.0639396514234)" d="M2.391,3.48892289 C3.913,2.62492289 5,1.54592289 5,0.89792289 C5,-0.82807711 3.043,0.03492289 1.522,2.62492289 L0,4.99992289 L2.391,3.48892289 Z" fill="rgba(0,0,0,0.6325427067154421)"></path><path transform="scale(1.1576796319363143 1.8335225783650722) rotate(44.00262810199587 381.81084456596625 657.612745757703) translate(381.81084456596625,657.612745757703)" d="M2.857,4 C4.381,4 6.286,3 6.857,2 L8,0 L5.143,0 C3.619,0 1.714,0.8 1.143,2 L0,4 L2.857,4 Z" fill="rgba(0,0,0,0.6887304251370057)"></path><path transform="scale(0.701103716096091 1.8057955232583596) rotate(20.930626499999107 948.949047639792 294.4766916971262) translate(948.949047639792,294.4766916971262)" d="M10,5.949 L10,3.077 L10,0 L8.2,0 C7.4,0 6.6,1.026 6.6,2.256 L6.6,4.513 L3.4,3.282 L0,2.051 L2.4,4.923 L4.8,8 L7.4,6.974 L10,5.949 Z" fill="rgba(0,0,0,0.5322073025749228)"></path><path transform="scale(1.6678501547146574 1.5893505739345248) rotate(36.99175619685854 275.52992294170986 1086.8547264416245) translate(275.52992294170986,1086.8547264416245)" d="M4,6 L2.8,3.077 C1.4,-0.429 0,-1.014 0,1.713 C0,2.882 0.8,4.246 2,4.831 L4,6 Z" fill="rgba(0,0,0,0.31943594659783603)"></path><path transform="scale(1.2360109921120241 1.3580697049112471) rotate(160.37466788843523 1549.72438882995 937.1792976122251) translate(1549.72438882995,937.1792976122251)" d="M4,6 L2.8,3.077 C1.4,-0.429 0,-1.014 0,1.713 C0,2.882 0.8,4.246 2,4.831 L4,6 Z" fill="rgba(0,0,0,0.4555983127817449)"></path><path transform="scale(1.54968994915852 1.2978588862971927) rotate(124.65265514356179 826.7063471558172 886.3028101687331) translate(826.7063471558172,886.3028101687331)" d="M10,5.949 L10,3.077 L10,0 L8.2,0 C7.4,0 6.6,1.026 6.6,2.256 L6.6,4.513 L3.4,3.282 L0,2.051 L2.4,4.923 L4.8,8 L7.4,6.974 L10,5.949 Z" fill="rgba(0,0,0,0.741005194716259)"></path><path transform="scale(1.6562029057763583 1.3375077468822139) rotate(258.7611988500907 119.44110441802724 1014.9519919176511) translate(119.44110441802724,1014.9519919176511)" d="M2.391,3.48892289 C3.913,2.62492289 5,1.54592289 5,0.89792289 C5,-0.82807711 3.043,0.03492289 1.522,2.62492289 L0,4.99992289 L2.391,3.48892289 Z" fill="rgba(0,0,0,0.3024081809681367)"></path><path transform="scale(0.7403097186437889 1.6661019760072073) rotate(227.52532389286188 919.9303112862153 54.02523116404234) translate(919.9303112862153,54.02523116404234)" d="M3,9 L5,7.085 L7,5.17 L6,2.489 L5,0 L4.8,3.447 L4.6,6.894 L2.2,5.553 L0,4.213 L1.6,6.511 Z" fill="rgba(0,0,0,0.5699614933408239)"></path><path transform="scale(0.9336141219160757 0.9889789424566324) rotate(263.3638129356755 1601.3672126077672 839.2060310373215) translate(1601.3672126077672,839.2060310373215)" d="M2.5,3 L3.846,1.615 L5,0 L2.5,0 L0,0 L1.154,1.615 Z" fill="rgba(0,0,0,0.9935283472825265)"></path><path transform="scale(1.1817749018421626 1.4012474157765864) rotate(80.26091324826668 1718.5141361645487 431.7250428040893) translate(1718.5141361645487,431.7250428040893)" d="M2.391,3.48892289 C3.913,2.62492289 5,1.54592289 5,0.89792289 C5,-0.82807711 3.043,0.03492289 1.522,2.62492289 L0,4.99992289 L2.391,3.48892289 Z" fill="rgba(0,0,0,0.10110526758504168)"></path><path transform="scale(1.0413347701838283 1.8055576258615265) rotate(117.63781714690558 1534.6459240019917 1849.4129639173225) translate(1534.6459240019917,1849.4129639173225)" d="M3.238,4 C3.619,4 4,3 4,2 L4,0 L1.905,0 L0,0 L1.143,2 C1.714,3 2.667,4 3.238,4 Z" fill="rgba(0,0,0,0.7693050216364339)"></path><path transform="scale(1.0554001610514583 1.3053174866467772) rotate(125.83746919302644 355.73655031519326 196.0230050688563) translate(355.73655031519326,196.0230050688563)" d="M2.857,4 C4.381,4 6.286,3 6.857,2 L8,0 L5.143,0 C3.619,0 1.714,0.8 1.143,2 L0,4 L2.857,4 Z" fill="rgba(0,0,0,0.8602287359974359)"></path><path transform="scale(0.5848810033958979 0.8534950338745285) rotate(339.61129607502744 554.3846409502642 1386.1062933365686) translate(554.3846409502642,1386.1062933365686)" d="M2.857,4 C4.381,4 6.286,3 6.857,2 L8,0 L5.143,0 C3.619,0 1.714,0.8 1.143,2 L0,4 L2.857,4 Z" fill="rgba(0,0,0,0.3218270017533307)"></path><path transform="scale(0.8847837386812284 1.3487551352762877) rotate(310.6518625171044 1124.9759064492655 872.7881183572129) translate(1124.9759064492655,872.7881183572129)" d="M4,6 L2.8,3.077 C1.4,-0.429 0,-1.014 0,1.713 C0,2.882 0.8,4.246 2,4.831 L4,6 Z" fill="rgba(0,0,0,0.7764991159224401)"></path><path transform="scale(1.844966563176088 1.5853981275048143) rotate(85.95756259426747 1637.0622508784222 205.91284064251968) translate(1637.0622508784222,205.91284064251968)" d="M0,5 L1.615,3.846 L3,2.5 L1.615,1.154 L0,0 L0,2.5 Z" fill="rgba(0,0,0,0.9036144788522298)"></path><path transform="scale(0.8696548340792951 0.7117983214567779) rotate(146.39056705854728 1236.36508552273 87.51140733464568) translate(1236.36508552273,87.51140733464568)" d="M3,9 L5,7.085 L7,5.17 L6,2.489 L5,0 L4.8,3.447 L4.6,6.894 L2.2,5.553 L0,4.213 L1.6,6.511 Z" fill="rgba(0,0,0,0.04077120795138378)"></path><path transform="scale(1.4284829720952343 1.1490352779959854) rotate(309.7022369657089 182.70321292932223 1321.0171946346215) translate(182.70321292932223,1321.0171946346215)" d="M0,5 L1.615,3.846 L3,2.5 L1.615,1.154 L0,0 L0,2.5 Z" fill="rgba(0,0,0,0.5814976870733299)"></path><path transform="scale(1.5603563217754348 0.5638589027887185) rotate(124.13035439291151 1108.3625477753008 752.2479233248154) translate(1108.3625477753008,752.2479233248154)" d="M3,9 L5,7.085 L7,5.17 L6,2.489 L5,0 L4.8,3.447 L4.6,6.894 L2.2,5.553 L0,4.213 L1.6,6.511 Z" fill="rgba(0,0,0,0.22437902142020927)"></path><path transform="scale(1.2345642447371226 1.294834813135569) rotate(267.8463907716744 85.33190737000629 1064.8705324327366) translate(85.33190737000629,1064.8705324327366)" d="M2.857,4 C4.381,4 6.286,3 6.857,2 L8,0 L5.143,0 C3.619,0 1.714,0.8 1.143,2 L0,4 L2.857,4 Z" fill="rgba(0,0,0,0.3776587168639933)"></path><path transform="scale(1.838054184212254 1.0892027315924615) rotate(98.71219154252265 500.3492985910283 1995.6266580481667) translate(500.3492985910283,1995.6266580481667)" d="M0,5 L1.615,3.846 L3,2.5 L1.615,1.154 L0,0 L0,2.5 Z" fill="rgba(0,0,0,0.17406369111612063)"></path><path transform="scale(1.3610546018551348 0.608492015340634) rotate(110.0835573669159 319.68748264018075 1194.0707235616208) translate(319.68748264018075,1194.0707235616208)" d="M3.238,4 C3.619,4 4,3 4,2 L4,0 L1.905,0 L0,0 L1.143,2 C1.714,3 2.667,4 3.238,4 Z" fill="rgba(0,0,0,0.52785779179589)"></path><path transform="scale(1.539852424904304 1.1286429166562528) rotate(186.57087004081632 1340.1970841012196 295.2199069693737) translate(1340.1970841012196,295.2199069693737)" d="M2.391,3.48892289 C3.913,2.62492289 5,1.54592289 5,0.89792289 C5,-0.82807711 3.043,0.03492289 1.522,2.62492289 L0,4.99992289 L2.391,3.48892289 Z" fill="rgba(0,0,0,0.39114421875798855)"></path><path transform="scale(0.7075774410005327 1.282128914969264) rotate(64.96531384579322 742.5342485584854 596.1681524294539) translate(742.5342485584854,596.1681524294539)" d="M10,5.949 L10,3.077 L10,0 L8.2,0 C7.4,0 6.6,1.026 6.6,2.256 L6.6,4.513 L3.4,3.282 L0,2.051 L2.4,4.923 L4.8,8 L7.4,6.974 L10,5.949 Z" fill="rgba(0,0,0,0.21537898908730746)"></path><path transform="scale(1.9474267791308142 1.9656357174453816) rotate(34.80447654477096 1561.4399918114673 108.63446919240083) translate(1561.4399918114673,108.63446919240083)" d="M0,5 L1.615,3.846 L3,2.5 L1.615,1.154 L0,0 L0,2.5 Z" fill="rgba(0,0,0,0.05006998736212309)"></path><path transform="scale(1.3241242475860435 1.5440718374950442) rotate(350.6910087115793 1107.7289380203283 1679.8399296815653) translate(1107.7289380203283,1679.8399296815653)" d="M4,6 L2.8,3.077 C1.4,-0.429 0,-1.014 0,1.713 C0,2.882 0.8,4.246 2,4.831 L4,6 Z" fill="rgba(0,0,0,0.1913480025807499)"></path><path transform="scale(1.6477904246907231 1.1892805439304353) rotate(283.5851311538598 124.08556427425088 1053.9194885383986) translate(124.08556427425088,1053.9194885383986)" d="M2.391,3.48892289 C3.913,2.62492289 5,1.54592289 5,0.89792289 C5,-0.82807711 3.043,0.03492289 1.522,2.62492289 L0,4.99992289 L2.391,3.48892289 Z" fill="rgba(0,0,0,0.4582556349204554)"></path><path transform="scale(1.3778910718076258 1.9673748252025631) rotate(69.68256145155547 1001.9795107143468 1280.1156852303643) translate(1001.9795107143468,1280.1156852303643)" d="M3,9 L5,7.085 L7,5.17 L6,2.489 L5,0 L4.8,3.447 L4.6,6.894 L2.2,5.553 L0,4.213 L1.6,6.511 Z" fill="rgba(0,0,0,0.6939298246145378)"></path><path transform="scale(1.8243889659338333 1.922644792732867) rotate(50.50003908965821 592.6189994788386 525.479012391012) translate(592.6189994788386,525.479012391012)" d="M0,5 L1.615,3.846 L3,2.5 L1.615,1.154 L0,0 L0,2.5 Z" fill="rgba(0,0,0,0.6718984830304637)"></path><path transform="scale(1.6629063107381865 1.7529664425488956) rotate(152.58089290243228 1176.9943909103126 285.6498045965754) translate(1176.9943909103126,285.6498045965754)" d="M2.5,3 L3.846,1.615 L5,0 L2.5,0 L0,0 L1.154,1.615 Z" fill="rgba(0,0,0,0.7063991198548301)"></path><path transform="scale(1.3758887873188588 1.190634353642078) rotate(291.2742958041887 329.67401335056667 1245.401860728804) translate(329.67401335056667,1245.401860728804)" d="M1,2 C1.6,2 2,1.6 2,1 C2,0.4 1.6,0 1,0 C0.4,0 0,0.4 0,1 C0,1.6 0.4,2 1,2 Z" fill="rgba(0,0,0,0.41444047884916224)"></path><path transform="scale(1.5230495262842294 0.8772706321068577) rotate(159.04197512109405 1339.3096506303214 1292.5244309287018) translate(1339.3096506303214,1292.5244309287018)" d="M0,5 L1.615,3.846 L3,2.5 L1.615,1.154 L0,0 L0,2.5 Z" fill="rgba(0,0,0,0.22242428655690483)"></path><path transform="scale(1.2590003037937616 1.4982725913912023) rotate(26.886687261063614 33.98116217209601 1726.5858367661547) translate(33.98116217209601,1726.5858367661547)" d="M1,2 C1.6,2 2,1.6 2,1 C2,0.4 1.6,0 1,0 C0.4,0 0,0.4 0,1 C0,1.6 0.4,2 1,2 Z" fill="rgba(0,0,0,0.7430595923396002)"></path><path transform="scale(1.64031724174365 1.9426479091107431) rotate(103.4229106855469 149.70270194408997 1818.594997602247) translate(149.70270194408997,1818.594997602247)" d="M3,9 L5,7.085 L7,5.17 L6,2.489 L5,0 L4.8,3.447 L4.6,6.894 L2.2,5.553 L0,4.213 L1.6,6.511 Z" fill="rgba(0,0,0,0.594273733406186)"></path><path transform="scale(1.4812223729540595 0.6921213464919213) rotate(184.9417025991805 834.0023231269918 1928.9181269867743) translate(834.0023231269918,1928.9181269867743)" d="M4,6 L2.8,3.077 C1.4,-0.429 0,-1.014 0,1.713 C0,2.882 0.8,4.246 2,4.831 L4,6 Z" fill="rgba(0,0,0,0.9744417456676788)"></path><path transform="scale(0.807891523067665 1.480327289646194) rotate(324.61842115311225 42.64267188062432 30.47060957159342) translate(42.64267188062432,30.47060957159342)" d="M2.857,4 C4.381,4 6.286,3 6.857,2 L8,0 L5.143,0 C3.619,0 1.714,0.8 1.143,2 L0,4 L2.857,4 Z" fill="rgba(0,0,0,0.7727259417132815)"></path><path transform="scale(1.4098291529402749 1.7471764811354327) rotate(300.43434344350584 1711.0801282277057 312.6724276821062) translate(1711.0801282277057,312.6724276821062)" d="M3.238,4 C3.619,4 4,3 4,2 L4,0 L1.905,0 L0,0 L1.143,2 C1.714,3 2.667,4 3.238,4 Z" fill="rgba(0,0,0,0.16332050810433762)"></path><path transform="scale(1.1889687489701415 1.1635743584923786) rotate(3.5532199019650523 443.62696064260064 1599.7852960220046) translate(443.62696064260064,1599.7852960220046)" d="M4,6 L2.8,3.077 C1.4,-0.429 0,-1.014 0,1.713 C0,2.882 0.8,4.246 2,4.831 L4,6 Z" fill="rgba(0,0,0,0.18457373321382242)"></path><path transform="scale(1.6366979134651272 1.8435902520680176) rotate(235.70508294929226 1676.301097477474 860.8235344226265) translate(1676.301097477474,860.8235344226265)" d="M3.238,4 C3.619,4 4,3 4,2 L4,0 L1.905,0 L0,0 L1.143,2 C1.714,3 2.667,4 3.238,4 Z" fill="rgba(0,0,0,0.7568105673763663)"></path><path transform="scale(0.6451647998725728 1.7374598264365257) rotate(102.94476392880172 714.6770534654805 289.72905857253204) translate(714.6770534654805,289.72905857253204)" d="M3.238,4 C3.619,4 4,3 4,2 L4,0 L1.905,0 L0,0 L1.143,2 C1.714,3 2.667,4 3.238,4 Z" fill="rgba(0,0,0,0.789392989609697)"></path><path transform="scale(0.851687362917686 1.998495845628151) rotate(287.8935552961579 1247.6169015769965 1836.0573636874467) translate(1247.6169015769965,1836.0573636874467)" d="M0,5 L1.615,3.846 L3,2.5 L1.615,1.154 L0,0 L0,2.5 Z" fill="rgba(0,0,0,0.11407406744571413)"></path><path transform="scale(1.7794317173007657 1.9574755483515056) rotate(143.41545343550095 480.09737142618957 291.1500977510535) translate(480.09737142618957,291.1500977510535)" d="M2.857,4 C4.381,4 6.286,3 6.857,2 L8,0 L5.143,0 C3.619,0 1.714,0.8 1.143,2 L0,4 L2.857,4 Z" fill="rgba(0,0,0,0.09309510531945264)"></path><path transform="scale(1.164530313982298 1.7752639365216556) rotate(221.84204037265243 1640.1340779477605 998.2337299607193) translate(1640.1340779477605,998.2337299607193)" d="M3.238,4 C3.619,4 4,3 4,2 L4,0 L1.905,0 L0,0 L1.143,2 C1.714,3 2.667,4 3.238,4 Z" fill="rgba(0,0,0,0.4961344784474262)"></path><path transform="scale(1.467515341128101 0.9998176358468528) rotate(43.03966710494139 864.0182809523478 497.4296523187634) translate(864.0182809523478,497.4296523187634)" d="M3.238,4 C3.619,4 4,3 4,2 L4,0 L1.905,0 L0,0 L1.143,2 C1.714,3 2.667,4 3.238,4 Z" fill="rgba(0,0,0,0.33964877726259024)"></path><path transform="scale(0.7411445047202788 1.7896421432112217) rotate(342.40428075800753 1171.037666745252 849.2778983307669) translate(1171.037666745252,849.2778983307669)" d="M2.857,4 C4.381,4 6.286,3 6.857,2 L8,0 L5.143,0 C3.619,0 1.714,0.8 1.143,2 L0,4 L2.857,4 Z" fill="rgba(0,0,0,0.7558505722110922)"></path><path transform="scale(1.1780766989015898 1.205948080786177) rotate(326.3096046826637 68.70504055439142 1532.2489864953352) translate(68.70504055439142,1532.2489864953352)" d="M2.5,3 L3.846,1.615 L5,0 L2.5,0 L0,0 L1.154,1.615 Z" fill="rgba(0,0,0,0.5083774198021658)"></path>
</g>
		</svg>
	